# xmcd
#
# Track frame offsets:
#	150
#	10984
#	22541
#	32730
#	43776
#	52003
#	64031
#	93234
#	105492
#	115143
#	127081
#	139982
#	150715
#	163572
#	174443
#	187691
#	198155
#	207461
#	218240
#	229224
#
# Disc length: 3212 seconds
#
# Revision: 0
# Processed by: cddbd v1.5.2PL0 Copyright (c) Steve Scherf et al.
# Submitted via: EZCDAudioConverter 1.3.1.1
#
DISCID=0c0c8a14
DTITLE=Various Artist - The Greatest Hits Of The 50's [CD4 - Giants Of 50'
DTITLE=s Rhythm and Blues)
DYEAR=1900
DGENRE=
TTITLE0=Shirley and Lee - Let The Good Times Roll
TTITLE1=Johnny Otis - Willie And The Hand Jive
TTITLE2=Clyde Mcphatter - Rock And Cry
TTITLE3=Lavern Parker - Hey Memphis
TTITLE4=Dee Clark - Hey Little Girl
TTITLE5=Jackie Wilson - Reet Petite
TTITLE6=Ray Charles - What'd I Say
TTITLE7=Sam Cooke - You Send Me
TTITLE8=Ruth Brown - Lucky Lips
TTITLE9=Lloyd Price - Personality
TTITLE10=Jackie Brenston - Rocket 88
TTITLE11=Bobby Day - Over And Over
TTITLE12=Ivory Joe Hunter - Since I Met You Baby
TTITLE13=Big Joe Turner - Bump Miss Susie
TTITLE14=Faye Adams - Shake A Hand
TTITLE15=Billy Bland - Let The Little Girl Dance
TTITLE16=Thurston Harris - Do What You Did
TTITLE17=Little Richard - Send Me Some Lovin'
TTITLE18=Wilbert Harrison - Kansas City
TTITLE19=Professor Longhair - go to the mardi gras
EXTD=
EXTT0=
EXTT1=
EXTT2=
EXTT3=
EXTT4=
EXTT5=
EXTT6=
EXTT7=
EXTT8=
EXTT9=
EXTT10=
EXTT11=
EXTT12=
EXTT13=
EXTT14=
EXTT15=
EXTT16=
EXTT17=
EXTT18=
EXTT19=
PLAYORDER=
